<?xml version="1.0" encoding="utf-8"?><svg xml:space="preserve" viewBox="0 0 100 100" y="0" x="0" xmlns="http://www.w3.org/2000/svg" id="Layer_1" version="1.1" width="47px" height="47px" xmlns:xlink="http://www.w3.org/1999/xlink" style="width:100%;height:100%;animation-play-state:paused" ><g class="ldl-scale" style="transform-origin:50% 50% 0px;transform:rotate(0deg) scale(0.8);animation-play-state:paused" ><g style="animation-play-state:paused" ><path d="M47.675 80.241h5.072v9.722h-5.072z" fill="#849b87" style="fill:rgb(132, 155, 135);animation-play-state:paused" ></path></g>
<ellipse fill="#f7b26a" ry="30.329" rx="16.908" cy="40.366" cx="50.211" style="fill:rgb(247, 178, 106);animation-play-state:paused" ></ellipse>
<path fill="#f47e5f" d="M50.211 77.141c-16.342 0-29.589-13.248-29.589-29.589V20.499c16.342 0 29.589 13.248 29.589 29.589v27.053z" style="fill:rgb(244, 126, 95);animation-play-state:paused" ></path>
<path fill="#f47e5f" d="M50.211 77.141c16.342 0 29.589-13.248 29.589-29.589V20.499c-16.342 0-29.589 13.248-29.589 29.589v27.053z" style="fill:rgb(244, 126, 95);animation-play-state:paused" ></path>
<path fill="#e15c64" d="M91 37.962c-14.177-5.811-30.381.972-36.192 15.149L50 64.843l-4.808-11.732C39.381 38.934 23.177 32.152 9 37.962l9.619 23.47c4.747 11.583 16.431 18.222 28.28 17.098a32.782 32.782 0 0 1 6.202 0c11.849 1.125 23.532-5.515 28.28-17.098L91 37.962z" style="fill:rgb(225, 92, 100);animation-play-state:paused" ></path>
<path fill="#acbd81" d="M79.883 70.834l-24.881 3.475a7.156 7.156 0 0 0-4.932 3.067 7.156 7.156 0 0 0-4.932-3.067l-24.881-3.475a7.186 7.186 0 0 0 6.123 8.111l22.469 3.138a8.83 8.83 0 0 0 2.441 0l22.469-3.138a7.187 7.187 0 0 0 6.124-8.111z" style="fill:rgb(172, 189, 129);animation-play-state:paused" ></path>
<metadata xmlns:d="https://loading.io/stock/" style="animation-play-state:paused" ><d:name style="animation-play-state:paused" >flower</d:name>


<d:tags style="animation-play-state:paused" >flower,rose,rosa rugosa,bud,blossom,bloom,floret,flora</d:tags>


<d:license style="animation-play-state:paused" >by</d:license>


<d:slug style="animation-play-state:paused" >vcrya9</d:slug></metadata></g><!-- generated by https://loading.io/ --></svg>